<svg width="220" height="66" viewBox="0 0 220 66" fill="none" xmlns="http://www.w3.org/2000/svg" xmlns:xlink="http://www.w3.org/1999/xlink">
<symbol id="logo-symbol-wordmark">
<path d="M111 48H105.374L93.5947 35.8643L81.8579 48H76.21L90.8022 32.9458L76.21 17.8916H81.8579L111 48ZM111 17.8916L97.8779 31.3921L95.0854 28.5156L105.374 17.8916H111ZM141.088 48H124.963C123.339 48 121.813 47.6921 120.386 47.0762C118.958 46.4463 117.712 45.5994 116.648 44.5356C115.599 43.4578 114.766 42.2051 114.15 40.7773C113.534 39.3356 113.226 37.8029 113.226 36.1792V24.3584H117.53V36.1792C117.53 37.215 117.719 38.1878 118.097 39.0977C118.489 39.9935 119.021 40.7843 119.693 41.4702C120.365 42.1421 121.149 42.681 122.044 43.0869C122.954 43.4788 123.927 43.6818 124.963 43.6958H136.784V24.3584H141.088V48ZM171.973 40.4834C171.973 41.5192 171.777 42.499 171.385 43.4229C170.993 44.3327 170.454 45.1305 169.769 45.8164C169.097 46.4883 168.299 47.0202 167.375 47.4121C166.465 47.804 165.492 48 164.457 48H146.169V43.6958H164.457C164.89 43.6958 165.303 43.6118 165.695 43.4438C166.087 43.2759 166.43 43.0449 166.724 42.751C167.018 42.457 167.249 42.1211 167.417 41.7432C167.585 41.3512 167.669 40.9313 167.669 40.4834C167.669 40.0495 167.585 39.6366 167.417 39.2446C167.249 38.8527 167.018 38.5098 166.724 38.2158C166.43 37.9219 166.087 37.6909 165.695 37.5229C165.303 37.341 164.89 37.25 164.457 37.25H152.615C151.719 37.25 150.879 37.082 150.095 36.7461C149.311 36.4102 148.625 35.9552 148.038 35.3813C147.464 34.7935 147.009 34.1076 146.673 33.3237C146.337 32.5399 146.169 31.7 146.169 30.8042C146.169 29.9084 146.337 29.0685 146.673 28.2847C147.009 27.5008 147.464 26.8219 148.038 26.248C148.625 25.6602 149.311 25.1982 150.095 24.8623C150.879 24.5264 151.719 24.3584 152.615 24.3584H169.832V28.6416H152.615C152.013 28.6416 151.502 28.8516 151.082 29.2715C150.676 29.6774 150.473 30.1883 150.473 30.8042C150.473 31.4061 150.676 31.917 151.082 32.3369C151.502 32.7428 152.013 32.9458 152.615 32.9458H164.457C165.492 32.9458 166.465 33.1418 167.375 33.5337C168.299 33.9256 169.097 34.4645 169.769 35.1504C170.454 35.8363 170.993 36.6341 171.385 37.5439C171.777 38.4538 171.973 39.4336 171.973 40.4834ZM181.757 18.9834C181.757 19.4313 181.673 19.8512 181.505 20.2432C181.337 20.6211 181.106 20.957 180.812 21.251C180.519 21.5449 180.176 21.7759 179.784 21.9438C179.392 22.1118 178.979 22.1958 178.545 22.1958C178.097 22.1958 177.677 22.1118 177.285 21.9438C176.893 21.7759 176.55 21.5449 176.256 21.251C175.962 20.957 175.731 20.6211 175.563 20.2432C175.396 19.8512 175.312 19.4313 175.312 18.9834C175.312 18.5495 175.396 18.1366 175.563 17.7446C175.731 17.3527 175.962 17.0098 176.256 16.7158C176.55 16.4219 176.893 16.1909 177.285 16.0229C177.677 15.841 178.097 15.75 178.545 15.75C178.979 15.75 179.392 15.841 179.784 16.0229C180.176 16.1909 180.519 16.4219 180.812 16.7158C181.106 17.0098 181.337 17.3527 181.505 17.7446C181.673 18.1366 181.757 18.5495 181.757 18.9834ZM180.687 48H176.382V24.3584H180.687V48ZM214.616 48H208.485L199.268 39.0977L190.24 48H184.088L196.308 36.2212L184.088 24.3584H190.24L214.616 48ZM214.616 24.3584L204.391 34.3315L201.305 31.5811L208.485 24.3584H214.616Z" fill="currentColor"/>
<rect x="9.48418" y="28.2534" width="26.5437" height="39.2619" transform="rotate(-45 9.48418 28.2534)" stroke="currentColor" stroke-width="6.7"/>
<rect x="9.41224" y="37.6746" width="39.969" height="26.04" transform="rotate(-45 9.41224 37.6746)" stroke="#800F02" stroke-width="6.7"/>
<rect x="9.41224" y="37.6746" width="39.969" height="26.04" transform="rotate(-45 9.41224 37.6746)" stroke="url(#paint0_linear_9_5)" stroke-width="6.7"/>
<path d="M11.7104 30.486L16.719 35.4946" stroke="currentColor" stroke-width="6.7"/>
<path d="M48.748 29.9957L53.7566 35.0043" stroke="currentColor" stroke-width="6.7"/>
<defs>
<linearGradient id="paint0_linear_9_5" x1="8.11873" y1="34.4556" x2="47.2931" y2="74.231" gradientUnits="userSpaceOnUse">
<stop stop-color="#B32017"/>
<stop offset="0.5" stop-color="#620700"/>
<stop offset="1" stop-color="#B32017"/>
</linearGradient>
</defs>
</symbol>
<use xlink:href="#logo-symbol-wordmark"/>
</svg>
