<svg xmlns="http://www.w3.org/2000/svg">
<symbol id="mastodon-svg-logo-full" viewBox="0 0 220 66" fill="none" xmlns="http://www.w3.org/2000/svg">
<path d="M105.303 46H100.592L90.7305 35.8398L80.9043 46H76.1758L88.3926 33.3965L76.1758 20.793H80.9043L105.303 46ZM105.303 20.793L94.3164 32.0957L91.9785 29.6875L100.592 20.793H105.303ZM130.492 46H116.992C115.633 46 114.355 45.7422 113.16 45.2266C111.965 44.6992 110.922 43.9902 110.031 43.0996C109.152 42.1973 108.455 41.1484 107.939 39.9531C107.424 38.7461 107.166 37.4629 107.166 36.1035V26.207H110.77V36.1035C110.77 36.9707 110.928 37.7852 111.244 38.5469C111.572 39.2969 112.018 39.959 112.58 40.5332C113.143 41.0957 113.799 41.5469 114.549 41.8867C115.311 42.2148 116.125 42.3848 116.992 42.3965H126.889V26.207H130.492V46ZM156.35 39.707C156.35 40.5742 156.186 41.3945 155.857 42.168C155.529 42.9297 155.078 43.5977 154.504 44.1719C153.941 44.7344 153.273 45.1797 152.5 45.5078C151.738 45.8359 150.924 46 150.057 46H134.746V42.3965H150.057C150.42 42.3965 150.766 42.3262 151.094 42.1855C151.422 42.0449 151.709 41.8516 151.955 41.6055C152.201 41.3594 152.395 41.0781 152.535 40.7617C152.676 40.4336 152.746 40.082 152.746 39.707C152.746 39.3438 152.676 38.998 152.535 38.6699C152.395 38.3418 152.201 38.0547 151.955 37.8086C151.709 37.5625 151.422 37.3691 151.094 37.2285C150.766 37.0762 150.42 37 150.057 37H140.143C139.393 37 138.689 36.8594 138.033 36.5781C137.377 36.2969 136.803 35.916 136.311 35.4355C135.83 34.9434 135.449 34.3691 135.168 33.7129C134.887 33.0566 134.746 32.3535 134.746 31.6035C134.746 30.8535 134.887 30.1504 135.168 29.4941C135.449 28.8379 135.83 28.2695 136.311 27.7891C136.803 27.2969 137.377 26.9102 138.033 26.6289C138.689 26.3477 139.393 26.207 140.143 26.207H154.557V29.793H140.143C139.639 29.793 139.211 29.9688 138.859 30.3203C138.52 30.6602 138.35 31.0879 138.35 31.6035C138.35 32.1074 138.52 32.5352 138.859 32.8867C139.211 33.2266 139.639 33.3965 140.143 33.3965H150.057C150.924 33.3965 151.738 33.5605 152.5 33.8887C153.273 34.2168 153.941 34.668 154.504 35.2422C155.078 35.8164 155.529 36.4844 155.857 37.2461C156.186 38.0078 156.35 38.8281 156.35 39.707ZM164.541 21.707C164.541 22.082 164.471 22.4336 164.33 22.7617C164.189 23.0781 163.996 23.3594 163.75 23.6055C163.504 23.8516 163.217 24.0449 162.889 24.1855C162.561 24.3262 162.215 24.3965 161.852 24.3965C161.477 24.3965 161.125 24.3262 160.797 24.1855C160.469 24.0449 160.182 23.8516 159.936 23.6055C159.689 23.3594 159.496 23.0781 159.355 22.7617C159.215 22.4336 159.145 22.082 159.145 21.707C159.145 21.3438 159.215 20.998 159.355 20.6699C159.496 20.3418 159.689 20.0547 159.936 19.8086C160.182 19.5625 160.469 19.3691 160.797 19.2285C161.125 19.0762 161.477 19 161.852 19C162.215 19 162.561 19.0762 162.889 19.2285C163.217 19.3691 163.504 19.5625 163.75 19.8086C163.996 20.0547 164.189 20.3418 164.33 20.6699C164.471 20.998 164.541 21.3438 164.541 21.707ZM163.645 46H160.041V26.207H163.645V46ZM192.051 46H186.918L179.201 38.5469L171.643 46H166.492L176.723 36.1387L166.492 26.207H171.643L192.051 46ZM192.051 26.207L183.49 34.5566L180.906 32.2539L186.918 26.207H192.051Z" fill="currentColor"/>
<rect x="9.48418" y="28.2534" width="26.5437" height="39.2619" transform="rotate(-45 9.48418 28.2534)" stroke="#EEEEEE" stroke-width="6.7"/>
<rect x="9.41224" y="37.6746" width="39.969" height="26.04" transform="rotate(-45 9.41224 37.6746)" stroke="#800F02" stroke-width="6.7"/>
<rect x="9.41224" y="37.6746" width="39.969" height="26.04" transform="rotate(-45 9.41224 37.6746)" stroke="url(#paint0_linear_9_5)" stroke-width="6.7"/>
<path d="M11.7104 30.486L16.719 35.4946" stroke="currentColor" stroke-width="6.7"/>
<path d="M48.748 29.9957L53.7566 35.0043" stroke="currentColor" stroke-width="6.7"/>
<defs>
<linearGradient id="paint0_linear_9_5" x1="8.11873" y1="34.4556" x2="47.2931" y2="74.231" gradientUnits="userSpaceOnUse">
<stop stop-color="#B32017"/>
<stop offset="0.5" stop-color="#620700"/>
<stop offset="1" stop-color="#B32017"/>
</linearGradient>
</defs>
</symbol>
</svg>
